<?xml version="1.0" standalone="no"?>
<!DOCTYPE svg PUBLIC "-//W3C//DTD SVG 20010904//EN"
 "http://www.w3.org/TR/2001/REC-SVG-20010904/DTD/svg10.dtd">
<svg version="1.0" xmlns="http://www.w3.org/2000/svg"
 width="667.000000pt" height="667.000000pt" viewBox="0 0 667.000000 667.000000"
 preserveAspectRatio="xMidYMid meet">
<metadata>
Created by potrace 1.11, written by Peter Selinger 2001-2013
</metadata>
<g transform="translate(0.000000,667.000000) scale(0.100000,-0.100000)"
fill="#000000" stroke="none">
<path d="M3070 5564 c-159 -23 -175 -25 -210 -34 -19 -5 -46 -11 -60 -14 -51
-10 -178 -50 -263 -82 -481 -184 -894 -541 -1146 -993 -7 -13 -21 -39 -32 -57
-10 -19 -16 -34 -12 -34 3 0 -1 -8 -9 -17 -9 -10 -21 -35 -29 -55 -7 -21 -17
-38 -23 -38 -5 0 -6 -3 -3 -7 4 -3 2 -12 -4 -20 -6 -7 -8 -13 -4 -13 4 0 3 -6
-2 -12 -19 -24 -90 -246 -108 -338 -3 -14 -8 -36 -10 -50 -3 -14 -8 -37 -10
-52 -3 -16 -7 -40 -10 -55 -20 -107 -27 -463 -11 -578 4 -33 10 -76 12 -95 1
-19 5 -44 8 -55 2 -11 9 -42 16 -70 26 -115 34 -144 61 -225 36 -108 86 -227
129 -310 19 -36 34 -67 35 -70 0 -3 4 -11 9 -19 7 -10 2 -12 -20 -7 -35 7 -73
12 -139 20 -193 23 -304 29 -542 30 -225 1 -232 0 -262 -22 -17 -12 -32 -22
-35 -22 -4 0 -220 -125 -329 -191 -27 -16 -53 -29 -58 -29 -12 0 -13 6 17 -91
14 -46 27 -88 28 -94 1 -5 10 -36 19 -67 10 -32 17 -60 17 -63 0 -3 7 -19 15
-35 9 -17 13 -30 11 -30 -3 0 2 -19 10 -42 8 -23 11 -50 7 -62 -4 -12 -8 -23
-8 -26 -1 -3 -5 -18 -10 -35 -4 -16 -14 -40 -21 -53 -8 -12 -12 -22 -9 -22 2
0 0 -12 -5 -26 -7 -18 -7 -39 1 -67 14 -50 17 -67 18 -87 2 -33 15 -40 52 -29
35 10 184 46 229 54 14 3 36 8 50 11 14 4 34 8 45 10 11 1 34 5 50 9 17 3 41
8 55 10 14 2 39 6 55 9 75 13 94 16 250 35 204 26 350 34 615 34 193 0 371 -7
440 -18 14 -2 48 -7 75 -10 48 -5 245 -39 293 -50 12 -3 32 -7 45 -9 125 -25
370 -107 470 -157 20 -10 37 -16 37 -13 0 4 7 1 15 -6 12 -10 33 -64 39 -100
1 -3 12 -26 24 -52 64 -129 220 -203 421 -197 87 2 173 20 222 46 82 43 179
178 181 252 1 17 6 35 12 40 21 17 355 130 401 136 11 1 27 5 35 8 13 5 52 15
85 22 34 8 233 48 254 51 14 2 36 6 48 9 12 3 44 8 70 10 27 3 62 7 78 10 33
4 137 14 230 21 152 12 536 6 690 -11 22 -2 65 -7 95 -10 30 -3 69 -8 85 -11
17 -3 44 -7 60 -9 35 -3 189 -31 255 -45 25 -6 56 -13 70 -16 14 -2 33 -7 42
-10 9 -3 25 -6 35 -8 23 -5 183 -52 204 -61 18 -7 24 6 59 117 15 47 19 72 12
85 -6 10 -22 54 -36 98 l-26 79 46 151 c25 82 57 184 70 225 29 89 29 96 7
103 -24 8 -77 40 -81 50 -2 4 -8 7 -13 7 -5 0 -61 32 -125 70 -64 39 -119 70
-121 70 -2 0 -23 12 -46 28 l-42 28 -220 -2 c-203 -1 -381 -8 -444 -18 -26 -4
-110 -14 -186 -22 -53 -5 -68 -8 -82 -17 -17 -11 -16 1 5 40 43 82 92 186 92
197 0 7 4 16 9 22 8 8 49 112 54 139 2 6 5 15 9 20 4 8 14 43 23 85 10 47 6
46 175 46 136 -1 160 1 161 14 1 21 1 251 0 273 -1 16 -12 18 -133 16 l-133
-1 2 58 c8 223 4 413 -11 504 -3 14 -7 45 -10 70 -9 66 -53 244 -82 330 -52
151 -190 438 -216 448 -4 2 -8 8 -8 14 0 6 -11 26 -25 44 -14 18 -25 37 -25
43 0 6 -4 11 -8 11 -4 0 -15 13 -25 29 -21 36 -182 216 -262 294 -197 192
-455 362 -696 458 -108 43 -215 81 -249 89 -80 19 -279 58 -330 65 -97 13
-440 12 -530 -1z"/>
</g>
</svg>
